# xmcd CD database file
#
# Track frame offsets:
#	150
#	19023
#	42241
#	59613
#	82075
#	103763
#	122267
#	144329
#	169057
#	186530
#	202008
#	221669
#	239187
#	259361
#	280139
#
# Disc length: 3954 seconds
#
# Revision: 3
# Processed by: cddbd v1.5.2PL0 Copyright (c) Steve Scherf et al.
# Submitted via: CDex 1.70beta2
#
DISCID=eb0f700f
DTITLE=Aki Sirkesalo - 30 unohtumatonta laulua
DYEAR=2006
DGENRE=Pop
TTITLE0=Hikinen iltapäivä
TTITLE1=Mustankipee
TTITLE2=Naispaholainen
TTITLE3=Pelkkää kuvitelmaa
TTITLE4=Mielenrauhaa
TTITLE5=Marvin Gaye
TTITLE6=Sä jaksat tanssii
TTITLE7=Missä betoni kasvaa
TTITLE8=Seksuaalista häirintää
TTITLE9=Heitätkö avaimen
TTITLE10=Kiire
TTITLE11=Leijailen
TTITLE12=Kissanainen
TTITLE13=Pikkuihminen
TTITLE14=Äiti
EXTD=YEAR: 2006
EXTT0=
EXTT1=
EXTT2=
EXTT3=
EXTT4=
EXTT5=
EXTT6=
EXTT7=
EXTT8=
EXTT9=
EXTT10=
EXTT11=
EXTT12=
EXTT13=
EXTT14=
PLAYORDER=
